<svg xmlns="http://www.w3.org/2000/svg" xmlns:xlink="http://www.w3.org/1999/xlink" width="25" height="34" viewBox="0 0 25 34"><defs><path id="so1sa" d="M182 253c0 4-3.68 8.32-5.03 12.08-2 5.59-1.72 8.92-5.97 8.92-4.19 0-3.97-3.35-5.97-8.95-1.34-3.75-5.03-8.02-5.03-12.05a11 11 0 1 1 22 0zm-8.05 14.98l.27-.88-6.2.77.02.03c.23.78.42 1.38.6 1.9l4.95-.62.36-1.2zm.59-1.92c.1-.34.22-.7.35-1.06h-7.77c.23.67.43 1.3.62 1.9zm-1.3 4.16l-4.24.53c.52 1.13.99 1.25 2 1.25 1.18 0 1.63-.13 2.24-1.78zm4.1-10.43c1.31-2.34 2.66-4.77 2.66-6.79a9.01 9.01 0 0 0-18 0c0 2.03 1.35 4.45 2.65 6.78a47.94 47.94 0 0 1 1.69 3.22h9.33c.5-1.07 1.09-2.15 1.67-3.2zm-5.84-12.29a.5.5 0 0 1-.5.5 5 5 0 0 0-5 5 .5.5 0 1 1-1 0 6 6 0 0 1 6-6c.28 0 .5.22.5.5z"/></defs><g><g transform="translate(-159 -241)"><use fill="#202728" xlink:href="#so1sa"/></g></g></svg>