<svg xmlns="http://www.w3.org/2000/svg" xmlns:xlink="http://www.w3.org/1999/xlink" width="35" height="29" viewBox="0 0 35 29"><defs><path id="n2lha" d="M359 200a8 8 0 1 1-16 0 8 8 0 0 1 16 0zm-4.1-4.55a6 6 0 1 0-7.8 9.1 6 6 0 0 0 7.8-9.1zm-3.4 1.05a.5.5 0 0 1-.5.5 3 3 0 0 0-3 3 .5.5 0 1 1-1 0 4 4 0 0 1 4-4c.28 0 .5.23.5.5zM367 194v15a3 3 0 0 1-3 3h-26a3 3 0 0 1-3-3v-15a2.99 2.99 0 0 1 2.5-2.96l4.34-.72 1.37-3.43A2.99 2.99 0 0 1 346 185h10c1.23 0 2.33.74 2.79 1.89l1.37 3.43 4.33.72A2.99 2.99 0 0 1 367 194zm-2 0a1 1 0 0 0-.84-.99l-5.44-.9-1.8-4.48a1 1 0 0 0-.92-.63h-10a1 1 0 0 0-.93.63l-1.79 4.48-5.44.9a1 1 0 0 0-.84 1V209a1 1 0 0 0 1 1h26a1 1 0 0 0 1-1z"/></defs><g><g transform="translate(-334 -184)"><use fill="#202728" xlink:href="#n2lha"/></g></g></svg>