<svg xmlns="http://www.w3.org/2000/svg" xmlns:xlink="http://www.w3.org/1999/xlink" width="34" height="26" viewBox="0 0 34 26"><defs><path id="w7r0a" d="M67 141.5a7.5 7.5 0 0 1-7.5 7.5h-18a6.47 6.47 0 1 1-3.25-12.1 4.5 4.5 0 0 1 5.6-5.67 8.97 8.97 0 0 1 17.06 2.91A7.5 7.5 0 0 1 67 141.5zm-2 0a5.5 5.5 0 0 0-4.46-5.4c-1.5-.33-1.5-.33-1.62-1.77a6.95 6.95 0 0 0-13.25-2.26c-.54 1.18-.67 1.62-1.82 1.16-.7-.28-1.35-.23-1.35-.23a2.5 2.5 0 0 0-2.5 2.5c0 .23.05.48.14.77.58 1.42.49 1.57-.89 2.36A4.45 4.45 0 0 0 37 142.5a4.5 4.5 0 0 0 4.5 4.5h18a5.5 5.5 0 0 0 5.5-5.5z"/></defs><g><g transform="translate(-34 -125)"><use fill="#202728" xlink:href="#w7r0a"/></g></g></svg>