<svg xmlns="http://www.w3.org/2000/svg" xmlns:xlink="http://www.w3.org/1999/xlink" width="36" height="26" viewBox="0 0 36 26"><defs><path id="z6oya" d="M307 253.07a2 2 0 0 1-.5 1.35l-14 14.9a2 2 0 0 1-3 0l-14-14.9a2 2 0 0 1 .09-2.75l5.08-5.08a2 2 0 0 1 1.41-.58h17.84a2 2 0 0 1 1.41.58l5.08 5.08a2 2 0 0 1 .59 1.4zm-16-1.91l-2.22 1.85h4.44zm3 1.2l2.53-2.12-2.02-2.01-2.73 2.28zm-3.78-1.85l-2.73-2.28-2.02 2.01 2.53 2.11zm-1.71 3.5l2.49 12.45 2.49-12.45zm3.55 12.26l7.36-12.26h-4.91zm7.23-13.26l-2.05-2.06-2.46 2.06zm-1.99-3.4l1.92-1.6h-3.51zm-4.08-1.6h-4.44l2.22 1.85zm-6.93 0h-3.51l1.92 1.6zm-3.58 5h4.51l-2.46-2.06zm-.13 1l7.36 12.26-2.45-12.26zm-1.16 0h-3.56l9.84 10.47zm12.87 10.47l9.85-10.47h-3.56zm10.63-11.47l-4.6-4.61-2.3 1.91 2.69 2.7zM277 253h4.28l2.7-2.7-2.3-1.91z"/></defs><g><g transform="translate(-273 -245)"><use fill="#202728" xlink:href="#z6oya"/></g></g></svg>