<svg xmlns="http://www.w3.org/2000/svg" xmlns:xlink="http://www.w3.org/1999/xlink" width="35" height="32" viewBox="0 0 35 32"><defs><path id="w7n5a" d="M363 248v14a1 1 0 0 1-1 1h-22a1 1 0 0 1-1-1v-14a1 1 0 0 1 1-1h22a1 1 0 0 1 1 1zm-1 0h-22v14h22zm5-2v20a3 3 0 0 1-2.99 3H354v1.22l6.24.8A1 1 0 0 1 360 273h-18a1 1 0 0 1-.24-1.97l6.24-.81V269h-10.01a3 3 0 0 1-2.99-3v-20a3 3 0 0 1 3-3h26a3 3 0 0 1 3 3zm-2 0a1 1 0 0 0-1-1h-26a1 1 0 0 0-1 1v20a1 1 0 0 0 1 1h26a1 1 0 0 0 1-1z"/></defs><g><g transform="translate(-334 -242)"><use fill="#202728" xlink:href="#w7n5a"/></g></g></svg>