<svg xmlns="http://www.w3.org/2000/svg" xmlns:xlink="http://www.w3.org/1999/xlink" width="36" height="32" viewBox="0 0 36 32"><defs><path id="pjbia" d="M124.2 139.2c-.13.11-11.06 10.92-11.06 10.92a3.05 3.05 0 0 1-4.28 0L97.81 139.2a9.4 9.4 0 0 1 0-13.4 9.63 9.63 0 0 1 13.19-.29 9.63 9.63 0 0 1 13.2.3 9.4 9.4 0 0 1 0 13.4zm-1.43-12a7.6 7.6 0 0 0-10.41-.22L111 128.2l-1.36-1.22a7.6 7.6 0 0 0-10.4.22 7.43 7.43 0 0 0 0 10.58l11.05 10.93c.39.39 1.03.39 1.42 0l11.06-10.93a7.43 7.43 0 0 0 0-10.58zm-18.02 1.33a.5.5 0 0 1-.5.5 3.25 3.25 0 0 0-3.25 3.24.5.5 0 0 1-1 0c0-2.34 1.9-4.24 4.25-4.24.28 0 .5.22.5.5z"/></defs><g><g transform="translate(-93 -121)"><use fill="#202728" xlink:href="#pjbia"/></g></g></svg>