<svg xmlns="http://www.w3.org/2000/svg" xmlns:xlink="http://www.w3.org/1999/xlink" width="36" height="35" viewBox="0 0 36 35"><defs><path id="gd7ha" d="M187 192a10 10 0 0 1-10 10c-1.28 0-2.5-.27-3.63-.71l-2.37 2.37V206a2 2 0 0 1-2 2h-2v2a2 2 0 0 1-2 2h-2.34l-1.44 1.44c-.35.35-.69.56-1.22.56h-3c-1.07 0-2-.93-2-2v-3c0-.54.22-.87.57-1.22l12.14-12.15a9.86 9.86 0 0 1-.7-3.63 10 10 0 0 1 20 0zm-2 0a8 8 0 0 0-16 0c0 1.48.43 2.85 1.13 4.04l-1.46 1.47L157 209.15V212h2.83l1.42-1.41a2 2 0 0 1 1.4-.59H165v-2c0-1.1.9-2 2-2h2v-2.34a2 2 0 0 1 .59-1.42l1.9-1.9 1.13-1.13.34-.34A7.92 7.92 0 0 0 177 200a8 8 0 0 0 8-8zm-2-1.2c0 .11-.02.22-.05.32a4.42 4.42 0 0 1-2.83 2.83c-.3.1-.63.06-.89-.13a17.76 17.76 0 0 1-4.05-4.05.97.97 0 0 1-.13-.88 4.42 4.42 0 0 1 2.83-2.83c.3-.1.63-.06.88.13a17.77 17.77 0 0 1 4.06 4.05c.12.17.18.36.18.56zm-1 0a16.76 16.76 0 0 0-3.82-3.8 3.46 3.46 0 0 0-2.18 2.22 17.17 17.17 0 0 0 3.82 3.8 3.46 3.46 0 0 0 2.18-2.21z"/></defs><g><g transform="translate(-153 -181)"><use fill="#202728" xlink:href="#gd7ha"/></g></g></svg>