<svg xmlns="http://www.w3.org/2000/svg" xmlns:xlink="http://www.w3.org/1999/xlink" width="27" height="34" viewBox="0 0 27 34"><defs><path id="ixwba" d="M123 258v7a9 9 0 0 1-9 9h-6a9 9 0 0 1-9-9v-7a3 3 0 0 1 3-3v-4a9 9 0 1 1 18 0v4a3 3 0 0 1 3 3zm-19-3h2v-4a5 5 0 1 1 10 0v4h2v-4a7 7 0 1 0-14 0zm7-8a4 4 0 0 0-4 4v4h8v-4a4 4 0 0 0-4-4zm10 11a1 1 0 0 0-1-1h-18a1 1 0 0 0-1 1v7a7 7 0 0 0 7 7h6a7 7 0 0 0 7-7zm-8 5c0 .61-.33 1.77-.67 2.68-.27.74-.55 1.32-1.33 1.32-.72 0-1.06-.59-1.33-1.33-.34-.91-.67-2.06-.67-2.67a2 2 0 0 1 4 0z"/></defs><g><g transform="translate(-98 -241)"><use fill="#202728" xlink:href="#ixwba"/></g></g></svg>