<svg xmlns="http://www.w3.org/2000/svg" xmlns:xlink="http://www.w3.org/1999/xlink" width="35" height="34" viewBox="0 0 35 34"><defs><path id="azhqa" d="M245.1 255.19l-15.26 15.38c-.47.47-1.06.82-1.7 1.01l-8.48 2.23c-.03 0-.77.19-1.16.19a3.5 3.5 0 0 1-3.5-3.5c0-.34.15-1 .16-1.03l2.34-8.5c.2-.65.54-1.24 1.02-1.71l10.33-10.41c0-.01 0-.02.02-.03l.04-.04 4.87-4.9a6.54 6.54 0 0 1 4.67-1.88c2.14 0 4.3.94 5.95 2.58 3.17 3.17 3.48 7.83.7 10.6zm-14.08 11.35l7.73-7.79-.01-.01.02-.02c1.27-1.27 1.57-3.18.99-5l-9.45 9.45c.38.84.63 1.72.71 2.63.03.25.02.5.01.74zm8.32-13.83a6.98 6.98 0 0 0-3.38-3.2l-9.53 9.53c.73.4 1.43.88 2.04 1.49.53.52.95 1.11 1.32 1.73zm-4.43-3.57a4.8 4.8 0 0 0-4.59 1.06l-7.7 7.76c.97.02 1.94.23 2.87.6zm-12.02 21.76a4.57 4.57 0 0 0-1.4-3.4 4.57 4.57 0 0 0-3.34-1.38l-1.05 3.82c-.02.1-.09.4-.1.56 0 .82.67 1.5 1.49 1.5.23-.02.57-.1.68-.13zm4.68-1.23c.13-.04.24-.1.36-.16 1.74-1.98 1.4-5.3-.87-7.57-2.15-2.14-5.23-2.57-7.24-1.13-.17.2-.32.44-.39.68l-1 3.61a5.7 5.7 0 0 1 3.77 1.7 5.58 5.58 0 0 1 1.67 3.84zm17.42-19.5a6.59 6.59 0 0 0-2-4.17 6.54 6.54 0 0 0-4.54-2c-1.27 0-2.42.46-3.25 1.29l-1.66 1.67c2.14 0 4.3.94 5.93 2.57a8.61 8.61 0 0 1 2.54 5.27c.03.23 0 .44 0 .67l1.68-1.7a4.58 4.58 0 0 0 1.3-3.6z"/></defs><g><g transform="translate(-214 -241)"><use fill="#202728" xlink:href="#azhqa"/></g></g></svg>