<svg xmlns="http://www.w3.org/2000/svg" xmlns:xlink="http://www.w3.org/1999/xlink" width="35" height="35" viewBox="0 0 35 35"><defs><path id="ffosa" d="M247 194a12 12 0 0 1-17.62 10.6l-8.34 8.34a3.52 3.52 0 0 1-6.04-2.47c0-.98.4-1.87 1.06-2.51v-.01l8.33-8.34A12 12 0 1 1 247 194zm-19.14 9.63a12.1 12.1 0 0 1-2.5-2.5l-8.06 8.07a1.75 1.75 0 0 0 1.23 3.04c.5 0 .94-.21 1.26-.55zM245 194a10 10 0 1 0-20 0 10 10 0 0 0 20 0zm-9.5-6.5a.5.5 0 0 1-.5.5 6 6 0 0 0-6 6 .5.5 0 1 1-1 0 7 7 0 0 1 7-7c.28 0 .5.22.5.5z"/></defs><g><g transform="translate(-214 -181)"><use fill="#202728" xlink:href="#ffosa"/></g></g></svg>