<svg xmlns="http://www.w3.org/2000/svg" xmlns:xlink="http://www.w3.org/1999/xlink" width="36" height="35" viewBox="0 0 36 35"><defs><path id="w4gta" d="M307 196.64v2.72a2 2 0 0 1-1.6 1.96l-3.07.61c-.16.45-.34.88-.54 1.3l1.74 2.6a2 2 0 0 1-.25 2.52l-1.93 1.93a2 2 0 0 1-2.52.25l-2.6-1.74c-.42.2-.85.38-1.3.54l-.6 3.06a2 2 0 0 1-1.97 1.61h-2.72a2 2 0 0 1-1.96-1.6l-.61-3.07c-.45-.16-.88-.34-1.3-.54l-2.6 1.74a2 2 0 0 1-2.52-.25l-1.93-1.93a2 2 0 0 1-.25-2.52l1.74-2.6c-.2-.42-.38-.85-.54-1.3l-3.06-.6a2 2 0 0 1-1.61-1.97v-2.72a2 2 0 0 1 1.6-1.96l3.07-.61c.16-.45.34-.88.54-1.3l-1.74-2.6a2 2 0 0 1 .25-2.52l1.93-1.93a2 2 0 0 1 2.52-.25l2.6 1.74c.42-.2.85-.38 1.3-.54l.6-3.06a2 2 0 0 1 1.97-1.61h2.72a2 2 0 0 1 1.96 1.6l.61 3.07a12 12 0 0 1 1.3.54l2.6-1.74a2 2 0 0 1 2.52.25l1.93 1.93a2 2 0 0 1 .25 2.52l-1.74 2.6c.2.42.38.85.54 1.3l3.06.6a2 2 0 0 1 1.61 1.97zm-2 2.72v-2.72l-3.07-.61a2 2 0 0 1-1.5-1.3c-.12-.38-.27-.74-.44-1.08a2 2 0 0 1 .14-1.98l1.73-2.6-1.92-1.93-2.6 1.73a2 2 0 0 1-1.99.14c-.35-.17-.7-.32-1.07-.45a2 2 0 0 1-1.3-1.5l-.62-3.06h-2.72l-.61 3.07a2 2 0 0 1-1.3 1.5c-.38.12-.74.27-1.08.44a2.01 2.01 0 0 1-1.98-.14l-2.6-1.73-1.93 1.92 1.73 2.6a2 2 0 0 1 .14 1.99 10 10 0 0 0-.45 1.07 2 2 0 0 1-1.5 1.3l-3.06.62v2.72l3.07.61a2 2 0 0 1 1.5 1.3c.12.38.27.74.44 1.08a2 2 0 0 1-.14 1.98l-1.73 2.6 1.92 1.93 2.6-1.73a2 2 0 0 1 1.99-.14c.35.17.7.32 1.07.45a2 2 0 0 1 1.3 1.5l.62 3.06h2.72l.61-3.07a2 2 0 0 1 1.3-1.5c.38-.12.74-.27 1.08-.44a2.01 2.01 0 0 1 1.98.14l2.6 1.73 1.93-1.92-1.73-2.6a2 2 0 0 1-.14-1.99 10 10 0 0 0 .45-1.07 2 2 0 0 1 1.5-1.3zm-7-1.36a7 7 0 1 1-14 0 7 7 0 0 1 14 0zm-.87 0a6.13 6.13 0 1 0-12.26 0 6.13 6.13 0 0 0 12.26 0zm-2.13 0a4 4 0 1 1-8 0 4 4 0 0 1 8 0zm-1 0a3 3 0 1 0-6 0 3 3 0 0 0 6 0z"/></defs><g><g transform="translate(-273 -181)"><use fill="#202728" xlink:href="#w4gta"/></g></g></svg>