<svg xmlns="http://www.w3.org/2000/svg" xmlns:xlink="http://www.w3.org/1999/xlink" width="36" height="35" viewBox="0 0 36 35"><defs><path id="l6gka" d="M292.99 126a.5.5 0 0 1 0-1h.02a10 10 0 0 1 9.98 10 .5.5 0 0 1-1 0c0-4.96-4.04-9-9-9zm13.13 17.88A3 3 0 0 1 304 149h-13.77l-3.13 3.12a3 3 0 0 1-4.24 0l-7.01-7a3 3 0 0 1 0-4.24l3.12-3.12V124a3 3 0 0 1 5.13-2.12zm-17.28 3.69l-8.43-8.43-.02.03-3.13 3.12a1 1 0 0 0 0 1.42l7.01 7a1 1 0 0 0 1.42 0l3.12-3.12.03-.02zm13.44-.57l-21.3-21.29v12.05c0 .15-.06.3-.1.44l8.9 8.89c.15-.04.29-.09.45-.09zm2.42-1.7l-22.02-22a1 1 0 0 0-1.09-.22 1 1 0 0 0-.62.92v.3L303.7 147h.3a1 1 0 0 0 .7-1.7zM292 122a1 1 0 0 1 1-1h.02A14 14 0 0 1 307 135a1 1 0 0 1-2 0c0-6.61-5.4-12-12.01-12a1 1 0 0 1-1-1z"/></defs><g><g transform="translate(-273 -120)"><use fill="#202728" xlink:href="#l6gka"/></g></g></svg>