<svg xmlns="http://www.w3.org/2000/svg" xmlns:xlink="http://www.w3.org/1999/xlink" width="36" height="34" viewBox="0 0 36 34"><defs><path id="atnja" d="M186.34 135.84l-6.1 6.1 1.42 8.45c.14.85-.23 1.7-.95 2.2a2.36 2.36 0 0 1-2.45.13l-7.26-3.9-7.26 3.9a2.38 2.38 0 0 1-2.45-.13 2.23 2.23 0 0 1-.95-2.2l1.42-8.46-6.1-6.09a2.2 2.2 0 0 1-.54-2.28 2.3 2.3 0 0 1 1.84-1.51l8.33-1.24 3.62-7.52c.38-.79 1.2-1.29 2.09-1.29.9 0 1.71.5 2.1 1.3l3.61 7.5 8.33 1.25a2.3 2.3 0 0 1 1.84 1.5c.28.8.07 1.69-.54 2.3zm-1.65-1.57l-8.33-1.24a2.3 2.3 0 0 1-1.74-1.27l-3.62-7.5-3.62 7.5a2.3 2.3 0 0 1-1.74 1.27l-8.33 1.24 6.1 6.1c.51.5.75 1.22.63 1.93l-1.42 8.45 7.26-3.9a2.36 2.36 0 0 1 2.24 0l7.26 3.9-1.42-8.45c-.12-.7.12-1.43.63-1.94z"/></defs><g><g transform="translate(-153 -121)"><use fill="#202728" xlink:href="#atnja"/></g></g></svg>