<svg xmlns="http://www.w3.org/2000/svg" xmlns:xlink="http://www.w3.org/1999/xlink" width="35" height="27" viewBox="0 0 35 27"><defs><path id="n8cua" d="M66.4 260.12l-5 8A4 4 0 0 1 58 270H39a4 4 0 0 1-4-4v-16a4 4 0 0 1 4-4h19a4 4 0 0 1 3.4 1.88l5 8a4 4 0 0 1 0 4.24zm-1.7-3.18l-5-8c-.37-.59-1-.94-1.7-.94H39a2 2 0 0 0-2 2v16c0 1.1.9 2 2 2h19c.7 0 1.33-.35 1.7-.94l5-8c.4-.64.4-1.48 0-2.12zM61 258a3 3 0 1 1-6 0 3 3 0 0 1 6 0zm-1 0a2 2 0 1 0-4 0 2 2 0 0 0 4 0z"/></defs><g><g transform="translate(-34 -245)"><use fill="#202728" xlink:href="#n8cua"/></g></g></svg>