<svg xmlns="http://www.w3.org/2000/svg" xmlns:xlink="http://www.w3.org/1999/xlink" width="31" height="35" viewBox="0 0 31 35"><defs><path id="l2mna" d="M65 188.82V191a2 2 0 0 1-2 2v17a4 4 0 0 1-4 4H43a4 4 0 0 1-4-4v-17a2 2 0 0 1-2-2v-2.18h.02A2.99 2.99 0 0 1 40 186h3v-1a3 3 0 0 1 3-3h10a3 3 0 0 1 3 3v1h3c1.6 0 2.88 1.25 2.98 2.82zM45 186h12v-1a1 1 0 0 0-1-1H46a1 1 0 0 0-1 1zm16 7H41v17c0 1.1.9 2 2 2h16a2 2 0 0 0 2-2zm2-4a1 1 0 0 0-1-1H40a1 1 0 0 0-1 1v2h24zm-20 20v-13a1 1 0 0 1 1-1h2a1 1 0 0 1 1 1v13a1 1 0 0 1-1 1h-2a1 1 0 0 1-1-1zm1 0h2v-13h-2zm5 0v-13a1 1 0 0 1 1-1h2a1 1 0 0 1 1 1v13a1 1 0 0 1-1 1h-2a1 1 0 0 1-1-1zm1 0h2v-13h-2zm5 0v-13a1 1 0 0 1 1-1h2a1 1 0 0 1 1 1v13a1 1 0 0 1-1 1h-2a1 1 0 0 1-1-1zm1 0h2v-13h-2z"/></defs><g><g transform="translate(-36 -181)"><use fill="#202728" xlink:href="#l2mna"/></g></g></svg>