<svg xmlns="http://www.w3.org/2000/svg" xmlns:xlink="http://www.w3.org/1999/xlink" width="35" height="25" viewBox="0 0 35 25"><defs><path id="efixa" d="M367 129v16.03a2 2 0 0 1-2 2h-.89a2 2 0 0 1-1.4-.58l-2.71-2.67V145a3 3 0 0 1-3 3h-19a3 3 0 0 1-3-3v-16a3 3 0 0 1 3-3h19a3 3 0 0 1 3 3v1.25l2.71-2.67a2 2 0 0 1 1.4-.58h.89a2 2 0 0 1 2 2zm-10 17a1 1 0 0 0 1-1v-16a1 1 0 0 0-1-1h-19a1 1 0 0 0-1 1v16a1 1 0 0 0 1 1zm8-17h-1l-5 5v6l1 1v.03l4 4h1z"/></defs><g><g transform="translate(-334 -125)"><use fill="#202728" xlink:href="#efixa"/></g></g></svg>